Patient4_TMGait_0pt3_03_left_11_GRF.mot
version=1
nRows=45
nColumns=19
inDegrees=no
endheader
time	F1x	F1y	F1z	M1x	M1y	M1z	F2x	F2y	F2z	M2x	M2y	M2z	EC1x	EC1y	EC1z	EC2x	EC2y	EC2z
19.87	-3.6383	-4.5625	0.18603	-0.095274	-0.33435	-2.9051	-6.9857	754.7222	-51.0199	266.9268	57.2856	757.6997	-0.0592	0.0182	-0.0073	-0.0462	0.0165	0.9585
19.8888	-2.711	-2.8659	0.25974	-0.15777	-0.4531	-1.68	-7.7187	769.0333	-50.1524	271.4891	56.5417	770.9948	-0.0592	0.0182	-0.0073	-0.0462	0.0165	0.9585
19.9076	-1.9217	-1.4092	0.30129	-0.20972	-0.52765	-0.63285	-8.3824	786.3501	-49.2903	277.1672	55.7018	786.8892	-0.0592	0.0182	-0.0073	-0.0462	0.0165	0.9585
19.9264	-1.3151	-0.28061	0.31889	-0.25211	-0.56886	0.18411	-8.8754	805.6308	-48.4236	283.6246	54.7212	804.3416	-0.0592	0.0182	-0.0073	-0.0462	0.0165	0.9585
19.9451	-0.89114	0.51861	0.31956	-0.28693	-0.58768	0.77536	-9.11	825.2915	-47.5095	290.3054	53.5272	821.8065	-0.0592	0.0182	-0.0073	-0.0462	0.0165	0.9585
19.9639	-0.62804	1.0338	0.31142	-0.31622	-0.597	1.1698	-9.0232	843.4125	-46.508	296.5146	52.0553	837.4432	-0.0592	0.0182	-0.0073	-0.0462	0.0165	0.9585
19.9827	-0.49349	1.3216	0.30098	-0.33866	-0.60623	1.4049	-8.5829	858.0184	-45.3993	301.522	50.2708	849.3902	-0.0592	0.0182	-0.0073	-0.0462	0.0165	0.9585
20.0015	-0.45385	1.4304	0.29167	-0.34932	-0.61988	1.5096	-7.7809	867.3695	-44.1943	304.6751	48.1776	856.0363	-0.0592	0.0182	-0.0073	-0.0462	0.0165	0.9585
20.0203	-0.47999	1.3914	0.28378	-0.33786	-0.63934	1.4928	-6.6314	870.2481	-42.9366	305.507	45.826	856.2837	-0.0592	0.0182	-0.0073	-0.0462	0.0165	0.9585
20.0391	-0.55021	1.2175	0.2778	-0.2889	-0.66512	1.3447	-5.1644	866.1614	-41.6948	303.8159	43.3027	849.7319	-0.0592	0.0182	-0.0073	-0.0462	0.0165	0.9585
20.0579	-0.65114	0.89925	0.27629	-0.18639	-0.69738	1.0348	-3.4214	855.4031	-40.5469	299.693	40.7143	836.7279	-0.0592	0.0182	-0.0073	-0.0462	0.0165	0.9585
20.0766	-0.7709	0.41143	0.28036	-0.014759	-0.73402	0.51963	-1.4397	838.9844	-39.557	293.4978	38.1628	818.2846	-0.0592	0.0182	-0.0073	-0.0462	0.0165	0.9585
20.0954	-0.89002	-0.27411	0.28654	0.23845	-0.76572	-0.23683	0.75501	818.4777	-38.7716	285.8018	35.7383	795.9233	-0.0592	0.0182	-0.0073	-0.0462	0.0165	0.9585
20.1142	-0.97856	-1.1706	0.28711	0.57652	-0.77607	-1.2509	3.1481	795.7733	-38.2185	277.3001	33.5106	771.4399	-0.0592	0.0182	-0.0073	-0.0462	0.0165	0.9585
20.133	-0.99172	-2.2505	0.26652	0.98613	-0.73385	-2.4949	5.7357	772.8326	-37.8942	268.7177	31.5108	746.6723	-0.0592	0.0182	-0.0073	-0.0462	0.0165	0.9585
20.1518	-0.86617	-3.408	0.20121	1.4243	-0.59255	-3.8533	8.5116	751.4513	-37.7652	260.7193	29.7352	723.2852	-0.0592	0.0182	-0.0073	-0.0462	0.0165	0.9585
20.1706	-0.51885	-4.417	0.066088	1.8029	-0.29477	-5.0763	11.4706	733.0788	-37.7868	253.8431	28.1611	702.6113	-0.0592	0.0182	-0.0073	-0.0462	0.0165	0.9585
20.1894	0.14358	-4.8923	-0.16393	1.9725	0.22441	-5.7397	14.6213	718.7133	-37.9232	248.4611	26.7557	685.5574	-0.0592	0.0182	-0.0073	-0.0462	0.0165	0.9585
20.2081	1.2115	-4.2522	-0.51126	1.7093	1.0272	-5.197	17.9715	708.8476	-38.1515	244.7565	25.4854	672.5648	-0.0592	0.0182	-0.0073	-0.0462	0.0165	0.9585
20.2269	2.7485	-1.7041	-0.98651	0.71011	2.1521	-2.5552	21.5103	703.4558	-38.4596	242.7188	24.3237	663.6079	-0.0592	0.0182	-0.0073	-0.0462	0.0165	0.9585
20.2457	4.7523	3.7231	-1.5727	-1.3956	3.5824	3.2878	25.1977	702.0166	-38.844	242.1523	23.2563	658.223	-0.0592	0.0182	-0.0073	-0.0462	0.0165	0.9585
20.2645	7.0966	13.0836	-2.2114	-5.0044	5.2031	13.5452	28.9449	703.5579	-39.294	242.6921	22.2805	655.5615	-0.0592	0.0182	-0.0073	-0.0462	0.0165	0.9585
20.2833	9.4533	27.307	-2.7793	-10.4588	6.7463	29.3143	32.5999	706.7007	-39.776	243.823	21.3998	654.4412	-0.0592	0.0182	-0.0073	-0.0462	0.0165	0.9585
20.3021	11.1698	46.8856	-3.0746	-17.9319	7.7275	51.2375	35.9555	709.7034	-40.2327	244.9017	20.6187	653.3801	-0.0592	0.0182	-0.0073	-0.0462	0.0165	0.9585
20.3209	11.2711	71.5915	-2.8179	-27.3134	7.4574	79.1815	38.7643	710.5966	-40.5974	245.2095	19.952	650.6987	-0.0592	0.0182	-0.0073	-0.0462	0.0165	0.9585
20.3396	9.1576	100.5744	-1.712	-38.2484	5.3698	112.32	40.7802	707.3997	-40.7966	244.033	19.412	644.695	-0.0592	0.0182	-0.0073	-0.0462	0.0165	0.9585
20.3584	5.0258	132.3389	0.47659	-50.1362	1.266	149.0201	41.8244	698.3545	-40.7532	240.7514	18.9841	633.8346	-0.0592	0.0182	-0.0073	-0.0462	0.0165	0.9585
20.3772	-0.39084	164.2047	3.701	-61.9568	-4.5256	186.2121	41.8234	682.1702	-40.3895	234.923	18.6223	616.9616	-0.0592	0.0182	-0.0073	-0.0462	0.0165	0.9585
20.396	-6.0243	192.7938	7.3872	-72.4698	-10.9361	220.0008	40.8256	658.3934	-39.656	226.4095	18.2712	593.6381	-0.0592	0.0182	-0.0073	-0.0462	0.0165	0.9585
20.4148	-11.117	216.1404	10.8077	-80.9834	-16.8446	248.0655	39.0342	627.8138	-38.5847	215.5088	17.897	564.5133	-0.0592	0.0182	-0.0073	-0.0462	0.0165	0.9585
20.4336	-15.5155	235.0971	13.5026	-87.857	-21.6783	271.2848	36.8032	592.462	-37.2787	202.9489	17.4776	531.3297	-0.0592	0.0182	-0.0073	-0.0462	0.0165	0.9585
20.4524	-19.3808	252.2936	15.4217	-94.0975	-25.4432	292.5512	34.5417	555.0253	-35.7971	189.6894	16.9358	496.4167	-0.0592	0.0182	-0.0073	-0.0462	0.0165	0.9585
20.4711	-22.8358	270.4092	16.8267	-100.706	-28.4765	314.7832	32.582	518.0858	-34.1261	176.6555	16.158	462.028	-0.0592	0.0182	-0.0073	-0.0462	0.0165	0.9585
20.4899	-25.8864	291.061	18.0904	-108.2668	-31.1936	339.692	31.0985	483.5307	-32.2569	164.5252	15.0873	429.8283	-0.0592	0.0182	-0.0073	-0.0462	0.0165	0.9585
20.5087	-28.4876	314.5301	19.4894	-116.8585	-33.8799	367.5032	30.1018	452.2796	-30.2447	153.6294	13.7725	400.6455	-0.0592	0.0182	-0.0073	-0.0462	0.0165	0.9585
20.5275	-30.5849	340.149	21.1254	-126.2094	-36.6213	397.3908	29.4889	424.324	-28.1824	143.966	12.3262	374.5008	-0.0592	0.0182	-0.0073	-0.0462	0.0165	0.9585
20.5463	-32.1662	366.9669	23.0002	-135.9494	-39.404	428.2326	29.1065	398.9482	-26.1372	135.2799	10.8525	350.7917	-0.0592	0.0182	-0.0073	-0.0462	0.0165	0.9585
20.5651	-33.2868	394.3043	25.0967	-145.8193	-42.2132	459.2348	28.7951	374.9736	-24.1131	127.1521	9.403	328.5066	-0.0592	0.0182	-0.0073	-0.0462	0.0165	0.9585
20.5839	-34.047	421.971	27.3899	-155.7477	-45.0418	490.1594	28.4129	351.049	-22.0702	119.1011	7.9869	306.4856	-0.0592	0.0182	-0.0073	-0.0462	0.0165	0.9585
20.6026	-34.5447	450.1693	29.8481	-165.8155	-47.8783	521.2085	27.8279	325.9813	-19.9751	110.6968	6.6157	283.7076	-0.0592	0.0182	-0.0073	-0.0462	0.0165	0.9585
20.6214	-34.8451	479.2176	32.4576	-176.1498	-50.7248	552.7227	26.8933	298.9769	-17.8326	101.6467	5.335	259.5003	-0.0592	0.0182	-0.0073	-0.0462	0.0165	0.9585
20.6402	-34.966	509.2654	35.2232	-186.8196	-53.595	584.8608	25.4464	269.7669	-15.6863	91.8405	4.2277	233.637	-0.0592	0.0182	-0.0073	-0.0462	0.0165	0.9585
20.659	-34.8705	540.1648	38.1367	-197.7864	-56.4733	617.4422	23.3654	238.6312	-13.6098	81.3598	3.3865	206.3477	-0.0592	0.0182	-0.0073	-0.0462	0.0165	0.9585
20.6778	-34.4878	571.4967	41.1418	-208.9161	-59.2826	649.9841	20.6282	206.3589	-11.6829	70.4642	2.8738	178.2845	-0.0592	0.0182	-0.0073	-0.0462	0.0165	0.9585
20.6966	-33.738	602.6483	44.1427	-220.0082	-61.9008	681.802	17.3432	174.1091	-9.9643	59.5443	2.6901	150.4035	-0.0592	0.0182	-0.0073	-0.0462	0.0165	0.9585
